<?xml version="1.0" standalone="no"?>
<!DOCTYPE svg PUBLIC "-//W3C//DTD SVG 20010904//EN"
 "http://www.w3.org/TR/2001/REC-SVG-20010904/DTD/svg10.dtd">
<svg version="1.0" xmlns="http://www.w3.org/2000/svg"
 width="1054.000000pt" height="1054.000000pt" viewBox="0 0 1054.000000 1054.000000"
 preserveAspectRatio="xMidYMid meet">
<metadata>
Created by potrace 1.14, written by Peter Selinger 2001-2017
</metadata>
<g transform="translate(0.000000,1054.000000) scale(0.100000,-0.100000)"
fill="#000000" stroke="none">
<path d="M2658 8845 c-153 -90 -278 -158 -278 -152 0 7 9 45 19 85 11 40 15
72 9 72 -5 0 -33 -11 -63 -25 -135 -64 -250 -223 -334 -465 -13 -36 -27 -74
-31 -85 -26 -66 -49 -155 -44 -169 5 -14 16 -16 53 -12 129 13 208 37 323 98
232 123 445 356 629 686 l58 105 -26 14 c-14 7 -28 13 -32 12 -3 0 -131 -74
-283 -164z"/>
<path d="M7430 8991 c0 -10 18 -52 39 -93 249 -476 597 -771 949 -805 l63 -6
-6 59 c-4 33 -9 62 -11 65 -2 3 -6 21 -9 40 -10 58 -54 178 -90 249 -81 155
-182 264 -303 324 l-52 27 5 -28 c3 -15 8 -41 11 -57 3 -16 10 -40 15 -54 5
-14 8 -26 6 -28 -8 -8 -112 56 -222 138 -139 104 -201 140 -287 168 -78 26
-108 26 -108 1z"/>
<path d="M3062 8609 c-158 -159 -348 -352 -424 -428 -75 -77 -139 -136 -143
-133 -4 4 -5 2 -3 -3 3 -11 -153 -170 -164 -167 -5 1 -7 -2 -5 -6 3 -11 -283
-297 -305 -305 -27 -9 -21 -73 9 -97 12 -10 23 -20 23 -24 0 -3 18 -34 40 -68
22 -35 40 -68 40 -75 0 -6 4 -13 9 -15 8 -3 118 -217 121 -236 1 -4 13 -31 26
-60 13 -29 24 -59 24 -67 0 -7 4 -16 9 -19 7 -5 62 -188 77 -257 35 -171 43
-320 22 -441 -12 -75 -38 -189 -48 -213 -4 -11 -17 -51 -28 -90 -32 -110 -94
-279 -106 -287 -6 -4 -8 -8 -4 -8 7 0 -34 -121 -52 -152 -6 -10 -10 -22 -10
-27 0 -5 -5 -22 -12 -38 -6 -15 -12 -33 -13 -39 -2 -7 -12 -38 -23 -70 -29
-87 -48 -152 -62 -214 -7 -30 -22 -77 -34 -104 -20 -47 -21 -64 -20 -355 0
-293 1 -307 21 -341 12 -19 23 -48 26 -65 2 -16 6 -37 10 -45 22 -57 44 -139
39 -144 -3 -3 -1 -6 5 -6 9 0 28 -54 24 -72 0 -5 3 -8 8 -8 5 0 12 -10 16 -22
10 -31 6 -22 57 -126 25 -51 51 -99 58 -107 7 -8 9 -15 6 -15 -4 0 -2 -6 4
-13 21 -24 74 -112 72 -119 -1 -5 1 -8 6 -8 4 0 18 -18 32 -40 14 -22 28 -40
32 -40 5 0 8 -6 8 -12 0 -7 14 -28 30 -47 16 -18 42 -49 57 -68 34 -43 193
-203 193 -194 0 3 11 -7 25 -23 14 -16 25 -25 25 -20 1 5 10 -2 20 -15 11 -13
20 -19 20 -15 0 5 4 4 8 -1 4 -6 23 -22 42 -35 19 -13 38 -29 42 -35 4 -5 8
-7 8 -3 0 4 29 -10 65 -32 36 -22 67 -40 69 -40 2 0 34 -14 72 -32 38 -17 78
-33 89 -35 11 -2 24 -8 29 -13 6 -6 18 -10 28 -10 10 0 26 -4 36 -9 9 -5 37
-15 62 -22 25 -7 50 -14 55 -15 6 -2 41 -10 78 -19 38 -8 76 -19 86 -25 10 -5
21 -7 24 -3 4 3 28 0 54 -7 26 -6 69 -13 96 -15 26 -2 51 -6 55 -9 4 -2 46 -7
92 -11 47 -3 92 -8 100 -10 8 -3 58 -7 110 -9 52 -3 145 -8 205 -11 61 -4 202
-8 315 -9 183 -3 244 -10 310 -34 8 -3 17 -6 20 -7 64 -17 198 -84 218 -109
26 -32 72 -30 113 5 19 16 40 29 47 29 6 0 12 5 12 11 0 5 5 7 10 4 6 -3 10
-1 10 5 0 6 5 8 10 5 6 -3 10 -2 10 3 0 9 79 39 93 34 4 -1 7 2 7 6 0 5 26 15
58 22 31 8 64 15 72 17 8 2 103 6 210 8 256 4 570 19 630 30 14 3 61 7 105 11
44 3 83 8 87 10 3 2 33 7 65 10 32 3 65 8 73 10 8 3 33 8 55 11 69 9 350 87
410 113 30 14 95 39 100 40 20 2 228 123 253 147 8 7 18 10 24 7 7 -4 8 -2 4
4 -4 7 -1 12 8 12 8 0 16 3 18 8 2 4 26 25 53 47 83 66 240 230 280 291 10 16
25 37 34 46 31 33 42 48 34 48 -4 0 1 7 11 15 11 8 17 15 13 15 -7 0 41 76 78
125 8 10 15 25 15 32 0 7 5 13 11 13 5 0 8 4 4 9 -3 5 1 15 8 23 12 12 31 51
37 73 1 6 11 22 22 38 11 15 16 27 12 27 -4 0 1 9 11 20 10 11 15 20 10 20 -4
0 0 11 9 25 9 14 14 25 11 25 -3 0 0 10 7 22 6 13 13 28 14 33 2 6 12 35 24
65 31 82 67 233 85 354 8 56 8 311 0 381 -6 53 -12 96 -29 185 -10 53 -45 187
-61 234 -9 26 -18 56 -21 65 -5 23 -49 151 -64 186 -23 56 -29 70 -70 180 -23
61 -43 117 -45 125 -2 8 -12 39 -24 68 -45 113 -86 291 -100 437 -12 117 0
269 31 390 11 44 21 87 23 96 10 51 95 272 107 280 6 3 9 9 7 13 -3 9 53 129
64 137 5 3 7 8 6 10 -5 6 83 163 93 167 4 2 6 8 2 13 -3 5 -1 9 4 9 5 0 12 8
16 18 7 23 25 49 62 94 6 8 8 20 6 27 -3 8 -77 87 -166 176 -430 431 -696 704
-696 714 0 6 -3 10 -8 8 -4 -1 -26 17 -50 41 -23 23 -39 42 -36 42 4 0 -6 10
-22 22 -54 43 -63 52 -58 60 3 4 1 8 -5 8 -11 0 -246 234 -268 268 -15 22 -53
31 -53 12 0 -5 -46 -41 -102 -80 -417 -289 -770 -360 -1158 -234 -114 38 -320
143 -465 238 -126 84 -150 95 -157 77 -4 -12 -173 -121 -187 -121 -6 0 -11 -4
-11 -8 0 -12 -221 -124 -315 -161 -108 -42 -180 -59 -307 -75 -148 -19 -308
-1 -468 53 -61 21 -241 105 -285 133 -11 7 -55 35 -97 61 -43 27 -78 53 -78
58 0 5 -6 9 -14 9 -8 0 -31 16 -51 35 l-37 34 -286 -290z m4007 99 c16 -18 48
-53 71 -78 22 -25 39 -52 37 -60 -2 -8 -51 -87 -109 -175 -58 -88 -120 -188
-138 -222 -18 -35 -37 -63 -41 -63 -4 0 -13 -16 -20 -34 -7 -19 -15 -33 -19
-31 -3 2 -12 -5 -19 -17 -10 -16 -10 -19 1 -13 7 3 6 1 -2 -7 -9 -7 -27 -31
-40 -53 -13 -22 -30 -46 -36 -53 -7 -6 -16 -21 -19 -32 -3 -11 -11 -20 -17
-20 -6 0 -9 -3 -5 -6 5 -6 0 -15 -30 -49 -7 -7 -13 -18 -13 -23 0 -5 -7 -15
-15 -22 -8 -7 -12 -16 -9 -21 3 -5 -2 -12 -10 -15 -9 -3 -16 -12 -16 -19 0 -7
-3 -15 -8 -17 -4 -1 -23 -28 -42 -58 -19 -30 -39 -58 -45 -62 -6 -5 -6 -8 0
-8 6 0 5 -3 -1 -8 -15 -10 -67 -93 -71 -112 -1 -8 11 -30 27 -49 17 -18 30
-30 30 -25 0 4 6 0 13 -11 13 -17 16 -16 47 13 18 18 29 32 24 32 -5 0 -2 6 6
13 8 7 20 20 25 28 6 9 42 59 81 110 38 52 78 105 87 119 9 13 17 20 17 15 0
-5 52 61 114 146 63 85 119 159 124 164 4 6 33 44 62 85 30 41 58 77 62 78 5
2 8 10 8 18 0 8 4 14 9 14 5 0 23 23 41 50 18 28 36 50 42 50 5 0 6 5 3 10 -3
6 -2 10 2 10 5 0 16 12 26 28 9 15 26 37 36 50 l20 23 107 -105 108 -105 -49
-63 c-27 -35 -52 -65 -55 -68 -3 -3 -50 -61 -105 -130 -133 -167 -126 -157
-162 -199 -18 -20 -33 -39 -33 -42 0 -3 -10 -17 -22 -31 -28 -30 -77 -88 -121
-142 -17 -21 -72 -87 -120 -145 -49 -58 -98 -117 -109 -131 -12 -14 -27 -32
-35 -41 -37 -44 -4 -111 53 -107 31 3 60 30 264 247 69 73 156 165 194 204
141 148 353 371 401 423 28 30 56 54 62 54 8 0 75 -68 122 -125 4 -5 24 -25
44 -43 21 -18 37 -36 37 -40 0 -4 -27 -32 -61 -62 -33 -30 -77 -71 -98 -90
-21 -19 -71 -64 -111 -100 -67 -60 -154 -139 -236 -215 -17 -16 -59 -54 -91
-82 -33 -29 -73 -65 -89 -80 -100 -93 -218 -198 -225 -201 -27 -11 -28 -42 -3
-91 37 -71 47 -77 77 -49 14 13 38 32 53 43 40 29 88 68 106 85 9 8 28 24 44
35 15 11 73 56 128 100 56 44 125 98 154 120 28 21 52 43 52 47 0 4 6 8 14 8
8 0 16 3 18 8 2 4 46 40 98 81 52 41 100 80 106 88 6 7 16 13 22 13 6 0 15 6
19 13 4 6 26 25 48 42 22 16 42 31 45 34 20 22 92 71 104 71 14 0 62 -45 163
-153 l33 -34 -23 -20 c-12 -11 -38 -30 -57 -44 -37 -25 -52 -36 -75 -56 -7 -7
-16 -13 -20 -13 -7 0 -71 -47 -93 -67 -7 -7 -17 -13 -21 -13 -4 0 -16 -8 -27
-17 -11 -10 -27 -22 -36 -28 -21 -13 -302 -214 -331 -237 -36 -29 -39 -31
-107 -77 -36 -25 -69 -51 -73 -58 -4 -7 -12 -13 -17 -13 -10 0 -104 -64 -128
-87 -7 -7 -20 -17 -29 -22 -11 -6 -17 -24 -19 -52 -2 -36 2 -46 20 -56 45 -26
79 -16 188 54 24 15 46 26 51 25 4 -1 7 2 7 7 0 5 8 12 18 15 9 3 26 12 37 19
71 44 147 87 155 87 4 0 10 3 12 8 2 4 48 34 103 67 157 94 198 116 203 110 5
-5 -76 -225 -89 -241 -5 -6 -7 -13 -4 -16 3 -3 0 -19 -6 -36 -10 -28 -29 -41
-174 -112 -89 -44 -166 -80 -171 -80 -4 0 -15 -7 -25 -16 -9 -8 -23 -16 -31
-18 -28 -4 -130 -62 -140 -79 -23 -43 -11 -106 27 -137 23 -19 80 -15 140 9
17 7 82 33 145 57 63 25 126 50 139 55 13 5 26 7 29 4 3 -3 7 -34 8 -68 2 -63
12 -152 19 -174 3 -10 -86 -45 -145 -58 -18 -4 -91 -29 -121 -41 -44 -19 -76
-72 -60 -101 10 -20 61 -59 61 -47 0 4 6 2 13 -4 9 -8 29 -7 70 2 31 7 57 11
57 9 0 -2 6 -1 13 4 6 4 19 9 27 10 8 2 26 5 40 7 14 3 39 7 55 10 35 7 54 -3
59 -30 2 -10 18 -54 34 -96 35 -90 35 -111 1 -114 -13 0 -44 -4 -69 -8 -25 -4
-61 -9 -80 -11 -19 -2 -35 -4 -35 -5 0 -1 -13 -3 -30 -5 -65 -6 -131 -17 -160
-26 -29 -9 -75 -62 -75 -87 0 -23 68 -64 107 -64 77 -1 404 21 414 27 21 13
62 -52 70 -110 0 -5 6 -18 11 -29 6 -10 12 -31 15 -47 l4 -28 -281 3 -281 3
-28 -34 c-27 -33 -28 -35 -13 -67 21 -46 43 -56 130 -62 42 -3 86 -7 97 -9 11
-2 37 -4 58 -4 24 -1 37 -6 37 -15 0 -18 -26 -22 -140 -20 -52 1 -142 2 -199
3 l-103 1 7 83 c14 157 9 413 -10 537 -2 14 -7 45 -10 70 -3 25 -8 52 -11 60
-3 8 -8 29 -10 45 -3 17 -10 44 -15 60 -6 17 -13 41 -15 54 -5 25 -24 82 -63
192 -23 65 -106 239 -150 317 -33 56 -130 204 -141 212 -3 3 -17 21 -30 40
-67 97 -352 380 -383 380 -4 0 -13 4 -20 10 -60 49 -77 61 -77 53 0 -4 -4 -3
-8 3 -11 16 -82 67 -82 59 0 -5 -9 2 -19 14 -11 12 -22 22 -25 22 -19 -3 -27
0 -22 7 3 5 0 9 -7 9 -7 0 -31 12 -55 26 -23 15 -42 24 -42 20 0 -5 -4 -3 -8
2 -7 9 -127 70 -141 70 -3 1 -15 6 -26 12 -18 10 -198 71 -227 77 -7 2 -20 6
-28 9 -8 4 -26 9 -40 12 -14 2 -47 10 -75 15 -27 6 -61 13 -75 15 -14 2 -25 4
-25 5 0 3 -45 8 -135 16 -101 10 -348 9 -440 -1 -86 -9 -115 -13 -115 -15 0
-1 -11 -3 -25 -6 -49 -8 -75 -13 -100 -18 -14 -3 -38 -9 -55 -12 -16 -3 -34
-9 -40 -13 -5 -3 -17 -6 -25 -6 -19 -1 -132 -38 -185 -61 -22 -10 -45 -18 -50
-20 -30 -5 -344 -169 -355 -184 -3 -4 -30 -23 -60 -42 -30 -19 -65 -44 -77
-54 -12 -11 -39 -32 -59 -49 -91 -72 -200 -178 -273 -265 -25 -30 -48 -57 -51
-60 -34 -34 -200 -281 -200 -298 0 -5 -7 -15 -15 -22 -8 -7 -13 -16 -10 -20 3
-5 1 -11 -4 -15 -15 -8 -96 -182 -93 -197 1 -5 -3 -8 -9 -8 -5 0 -8 -4 -4 -9
3 -5 1 -12 -5 -16 -5 -3 -10 -17 -10 -31 0 -13 -5 -24 -11 -24 -5 0 -8 -4 -5
-9 3 -5 -1 -23 -10 -40 -8 -17 -17 -43 -20 -58 -3 -15 -14 -59 -25 -97 -18
-68 -38 -165 -44 -216 -2 -14 -7 -54 -11 -90 -9 -73 -11 -416 -2 -471 3 -20 8
-41 12 -47 17 -28 -26 -33 -336 -33 -376 -1 -348 -2 -348 16 0 8 8 15 18 16
18 1 45 4 102 12 19 3 62 8 95 11 33 4 74 9 90 13 17 3 46 7 65 9 19 1 35 3
35 4 0 1 14 3 31 5 17 1 43 5 57 9 36 9 86 59 82 82 -2 11 -4 24 -4 30 -1 7
-17 19 -36 28 -33 16 -112 16 -315 1 -136 -11 -223 -17 -287 -19 l-72 -3 14
34 c8 18 14 34 14 36 -2 11 18 67 30 87 l16 26 165 -2 c91 -1 217 -2 280 -3
63 -1 123 -2 132 -2 26 1 58 41 58 72 0 29 -40 85 -62 86 -17 1 -140 12 -203
18 -111 10 -192 17 -236 20 -25 1 -51 5 -57 9 -12 7 -5 37 23 101 9 22 18 45
19 50 10 45 17 52 51 51 19 0 35 -3 35 -6 0 -3 8 -7 18 -8 40 -5 77 -10 77
-12 0 -2 24 -6 80 -15 22 -3 47 -9 55 -12 8 -3 33 -9 55 -13 45 -9 67 -1 100
38 26 30 21 57 -17 95 -20 19 -249 106 -328 124 -31 8 -53 29 -45 44 4 5 9 22
11 37 2 15 6 38 8 52 3 14 5 55 5 93 l1 67 28 -6 c15 -4 37 -14 49 -22 13 -8
23 -12 23 -9 0 3 27 -8 59 -23 33 -16 88 -41 123 -56 35 -14 88 -38 118 -52
63 -29 89 -30 128 -5 50 32 57 54 37 105 -6 14 -33 32 -44 28 -2 -1 -7 2 -10
8 -3 5 -58 35 -121 68 -63 32 -116 62 -118 66 -2 5 -11 8 -21 8 -9 0 -21 4
-26 9 -6 5 -64 37 -130 71 -66 34 -123 67 -128 74 -4 6 -12 29 -17 51 -6 22
-12 45 -14 50 -2 6 -4 13 -5 17 -1 4 -10 28 -21 53 -11 25 -17 45 -14 45 2 0
-7 22 -20 49 -14 27 -23 51 -20 53 2 3 -2 11 -11 18 -8 7 -15 22 -15 34 0 12
-5 27 -12 34 -22 22 19 25 43 3 13 -12 29 -21 36 -21 7 0 13 -3 13 -8 0 -4 20
-18 45 -32 25 -14 45 -28 45 -32 0 -5 5 -8 10 -8 6 0 50 -27 99 -60 49 -33 92
-60 96 -60 3 0 15 -8 26 -18 10 -11 32 -25 47 -33 15 -8 29 -16 32 -19 11 -11
67 -48 108 -70 23 -13 42 -27 42 -32 0 -4 4 -8 9 -8 5 0 44 -22 85 -50 42 -27
84 -50 95 -50 11 0 36 16 56 35 41 40 45 80 10 99 -11 6 -22 13 -25 16 -3 3
-32 25 -65 50 -33 25 -62 48 -63 53 -2 4 -8 7 -14 7 -5 0 -16 7 -24 15 -9 8
-46 36 -82 62 -37 26 -69 50 -72 53 -3 3 -32 25 -65 49 -33 25 -61 48 -63 53
-2 4 -7 8 -12 8 -7 0 -329 236 -367 270 -7 5 -16 10 -22 10 -5 0 -11 4 -13 8
-1 5 -30 28 -63 53 -33 24 -66 49 -75 56 -8 7 -26 21 -39 31 l-25 19 33 41
c34 43 173 172 186 172 7 0 77 -53 105 -80 9 -8 33 -28 54 -45 21 -16 46 -37
56 -45 10 -8 35 -29 57 -46 103 -84 462 -379 489 -402 17 -15 46 -38 64 -52
18 -14 39 -31 46 -37 32 -32 181 -150 197 -156 9 -3 17 -2 17 4 0 6 4 8 9 4
20 -12 43 28 38 66 -5 40 1 34 -247 269 -78 74 -168 160 -200 190 -31 30 -121
116 -200 190 -291 277 -315 301 -312 314 4 22 138 168 183 200 24 17 12 28
171 -148 29 -32 64 -70 78 -86 14 -15 57 -62 95 -105 39 -42 84 -92 100 -110
17 -18 64 -69 105 -115 41 -46 86 -95 100 -110 14 -14 61 -67 105 -116 125
-140 168 -184 179 -184 24 0 116 56 116 70 -1 20 -25 52 -33 43 -4 -3 -7 -1
-7 6 0 7 -28 47 -62 89 -35 42 -66 82 -70 87 -14 17 -69 89 -91 118 -12 16
-27 34 -32 40 -6 7 -44 55 -85 107 -41 52 -85 109 -99 126 -42 50 -55 67 -86
109 -17 22 -34 45 -40 51 -5 6 -22 26 -37 45 -15 19 -70 88 -122 154 l-94 120
62 65 c35 36 79 82 100 104 l37 39 41 -59 c23 -33 46 -60 50 -62 4 -2 8 -9 8
-15 0 -7 14 -28 30 -47 16 -19 30 -38 30 -42 0 -4 6 -13 13 -20 7 -7 33 -42
57 -78 45 -65 56 -80 75 -103 6 -7 44 -59 85 -117 40 -58 79 -108 84 -112 7
-5 7 -8 1 -8 -6 0 -6 -3 1 -8 6 -4 51 -63 100 -132 93 -130 102 -143 120 -163
6 -7 13 -17 15 -22 13 -32 87 -124 104 -130 42 -15 54 -14 74 3 40 33 35 70
-19 160 -28 46 -50 87 -50 91 0 4 -8 16 -18 27 -10 10 -24 34 -31 52 -7 17
-17 32 -22 32 -5 0 -9 4 -9 10 0 5 -18 39 -40 75 -22 36 -40 68 -40 71 0 3
-13 24 -29 47 -15 23 -30 47 -32 52 -9 23 -154 260 -161 263 -5 2 -8 8 -8 14
0 6 -34 66 -75 135 -41 68 -75 128 -75 134 0 5 -4 9 -10 9 -5 0 -10 6 -10 14
0 8 -3 16 -7 18 -5 2 -20 26 -35 54 l-27 51 39 42 c21 22 44 41 50 41 7 0 24
-11 38 -25 15 -14 31 -25 35 -24 5 0 16 -8 25 -18 23 -24 79 -63 92 -63 5 0
10 -4 10 -10 0 -5 6 -10 14 -10 8 0 21 -9 29 -20 8 -11 16 -17 19 -14 5 5 75
-57 71 -63 -4 -7 11 -43 18 -43 5 0 9 -5 9 -12 0 -11 23 -60 196 -414 35 -71
64 -135 64 -141 0 -6 3 -13 8 -15 6 -2 42 -71 47 -88 6 -21 71 -147 80 -152 5
-4 7 -8 3 -8 -13 0 53 -121 70 -128 9 -4 36 -6 59 -6 57 1 76 23 78 89 2 49
-25 129 -110 330 -4 11 -9 25 -11 30 -1 6 -8 24 -15 40 -7 17 -13 33 -13 37
-1 3 -4 10 -8 14 -5 4 -8 13 -8 21 0 7 -9 32 -19 56 -10 23 -27 62 -36 87 -9
25 -22 56 -28 70 -5 14 -11 30 -13 35 -1 6 -9 27 -18 48 -16 37 -12 44 19 37
28 -6 119 -13 194 -14 l84 -1 28 -90 c16 -49 34 -108 40 -130 6 -22 16 -53 23
-70 6 -16 11 -32 12 -35 0 -3 7 -25 14 -50 17 -57 16 -53 22 -70 15 -38 39
-130 36 -133 -1 -2 3 -11 11 -20 7 -10 10 -17 7 -17 -15 0 29 -59 51 -69 42
-19 67 -13 92 24 19 28 22 42 17 73 -4 20 -9 51 -12 67 -3 17 -10 48 -16 70
-6 22 -12 51 -14 65 -3 30 -12 70 -25 125 -10 40 -11 49 -23 116 -4 19 -15 70
-25 111 -19 80 -14 108 18 108 10 0 21 3 25 8 4 4 11 7 14 7 4 0 27 10 52 22
25 12 52 23 60 25 8 2 18 7 21 11 11 15 62 13 64 -3 1 -8 5 -40 9 -70 4 -30 9
-66 11 -80 2 -14 7 -43 10 -65 9 -59 15 -106 20 -140 3 -16 7 -53 10 -83 3
-30 7 -58 10 -62 2 -4 7 -36 10 -71 4 -35 9 -75 11 -89 3 -14 9 -49 13 -79 9
-62 53 -114 92 -108 25 4 62 44 53 58 -3 5 -1 9 4 9 9 0 8 62 -3 185 -3 39 -8
106 -10 150 -2 44 -6 109 -9 145 -3 36 -8 112 -11 170 -3 58 -8 128 -10 155
-11 119 -9 132 21 159 16 14 35 26 42 26 7 0 11 4 8 8 -2 4 7 9 20 10 14 1 27
-5 30 -13 4 -8 11 -15 18 -16 6 0 31 -15 56 -33 l45 -33 0 -339 c0 -186 -2
-388 -5 -449 -5 -115 3 -165 26 -165 8 0 14 -4 14 -9 0 -16 33 -18 61 -5 36
18 53 41 55 77 1 18 5 57 8 87 4 30 9 84 11 120 2 36 7 90 10 120 2 30 8 91
11 135 10 131 12 157 19 225 4 36 8 67 10 69 2 1 18 -4 35 -12 19 -10 28 -11
24 -4 -3 7 2 3 10 -7 9 -11 16 -17 16 -13 0 3 20 -3 45 -14 25 -11 55 -22 66
-24 33 -6 50 -26 43 -47 -3 -11 -7 -30 -9 -41 -2 -12 -6 -33 -10 -47 -3 -14
-7 -38 -10 -55 -2 -16 -7 -41 -10 -55 -4 -14 -8 -34 -9 -45 -1 -11 -5 -26 -10
-33 -4 -7 -6 -16 -3 -18 3 -3 1 -20 -4 -37 -5 -18 -12 -48 -15 -67 -3 -19 -7
-42 -9 -50 -2 -8 -7 -28 -10 -45 -2 -16 -7 -41 -10 -55 -17 -82 -17 -87 14
-113 16 -13 27 -28 23 -32 -4 -4 0 -5 8 -3 21 4 100 57 98 66 -1 4 2 14 5 22
8 18 78 230 82 245 2 10 4 15 21 60 4 11 9 29 11 39 2 11 8 25 14 33 6 7 9 13
5 13 -4 0 0 13 8 29 9 16 12 31 9 35 -4 3 -2 6 3 6 5 0 10 9 11 21 1 12 10 40
19 63 17 42 18 42 73 44 103 5 206 19 233 33 33 18 41 11 33 -28 -4 -21 -11
-44 -17 -50 -6 -7 -7 -13 -2 -13 5 0 5 -4 -1 -8 -13 -10 -47 -75 -35 -67 6 3
7 -1 4 -9 -3 -9 -10 -16 -15 -16 -5 0 -9 -9 -9 -20 0 -11 -5 -20 -11 -20 -6 0
-9 -6 -6 -14 3 -8 -1 -20 -8 -26 -8 -7 -14 -15 -13 -18 1 -4 -6 -23 -14 -42
-48 -105 -62 -135 -63 -140 0 -3 -7 -16 -15 -30 -7 -14 -13 -26 -12 -27 1 -2
-10 -28 -24 -59 -14 -31 -26 -61 -27 -68 -1 -6 -4 -13 -7 -16 -14 -14 -48 -90
-37 -83 8 4 7 1 -2 -10 -11 -14 -11 -22 0 -49 7 -18 21 -40 31 -49 10 -9 15
-18 12 -21 -2 -3 7 -8 21 -11 19 -3 34 2 51 18 13 12 21 25 17 28 -3 4 -1 7 6
7 7 0 9 5 6 10 -3 6 -1 10 5 10 6 0 8 5 5 10 -3 6 -2 10 2 10 8 0 28 43 30 64
1 5 5 12 10 15 4 3 24 38 43 76 19 39 37 72 40 75 3 3 23 41 45 85 21 44 44
83 50 87 5 4 7 8 4 8 -4 0 15 41 42 92 27 50 51 100 55 110 3 10 10 18 15 18
6 0 8 4 5 9 -3 5 3 20 15 35 11 14 22 35 24 46 2 11 11 27 19 36 9 8 17 20 17
25 1 5 2 13 3 19 0 5 7 15 14 22 6 6 12 17 12 23 0 6 11 27 25 48 14 20 23 37
21 37 -3 0 8 14 24 30 16 17 34 30 40 30 5 0 10 3 10 8 0 4 12 16 27 26 16 12
23 14 18 5 -5 -8 5 -1 22 15 17 16 34 28 38 27 3 -1 18 10 32 26 14 15 22 21
18 13 -3 -8 1 -6 9 4 9 11 16 23 16 27 0 18 42 -2 69 -33z"/>
<path d="M1778 8403 c-9 -3 -23 -17 -30 -34 -7 -16 -16 -29 -20 -29 -5 0 -8
-4 -8 -9 0 -5 -22 -46 -49 -90 -71 -116 -134 -250 -175 -371 -35 -106 -41
-131 -52 -205 -3 -22 -7 -51 -10 -65 -2 -14 -7 -86 -10 -161 -7 -155 -5 -158
68 -138 39 10 173 76 200 98 7 6 39 31 71 56 63 50 147 132 215 210 47 54 182
251 182 265 0 11 -34 1 -155 -48 -55 -22 -116 -43 -135 -46 -121 -20 -115 -27
-114 136 1 73 6 158 13 188 6 30 14 69 16 85 3 17 8 41 10 55 11 54 14 100 7
103 -4 2 -15 2 -24 0z"/>
<path d="M8625 8392 c-6 -4 -9 -16 -8 -27 1 -11 5 -47 7 -80 3 -33 8 -78 10
-100 3 -22 8 -67 11 -100 3 -33 7 -71 10 -85 2 -14 7 -59 11 -101 l6 -77 -59
5 c-71 6 -179 41 -275 89 l-71 36 6 -31 c15 -71 61 -147 136 -221 42 -41 90
-83 106 -92 162 -92 342 -228 378 -284 18 -28 27 -34 52 -32 28 3 31 7 43 63
14 66 18 229 8 285 -35 184 -91 319 -242 585 -44 77 -83 148 -87 158 -7 18
-25 22 -42 9z"/>
<path d="M1202 7763 c-35 -76 -68 -164 -102 -278 -38 -124 -58 -434 -37 -570
4 -27 10 -66 13 -85 8 -53 51 -214 68 -254 8 -20 22 -36 30 -36 23 0 145 67
195 107 67 54 155 147 223 236 69 91 161 237 148 237 -5 0 -82 -25 -172 -57
-187 -65 -221 -73 -239 -63 -15 10 -14 7 -24 135 -4 55 -8 118 -10 140 -2 22
-7 87 -10 145 -3 58 -8 125 -10 150 -2 25 -6 79 -9 120 -7 88 -15 152 -20 157
-1 2 -21 -36 -44 -84z"/>
<path d="M9154 7715 c4 -66 9 -145 12 -175 10 -95 7 -313 -5 -374 -16 -88 -45
-141 -87 -161 -48 -23 -110 -8 -237 56 -54 27 -109 54 -123 59 -23 9 -24 8
-18 -17 14 -55 80 -150 148 -215 22 -21 90 -79 150 -130 100 -82 152 -135 190
-192 12 -17 15 -17 42 -3 16 8 39 26 51 39 28 30 70 124 78 175 3 21 8 50 11
63 14 69 -2 440 -21 470 -2 3 -6 25 -10 50 -25 169 -117 416 -171 461 -15 12
-16 2 -10 -106z"/>
<path d="M778 7165 c-10 -18 -57 -170 -63 -205 -38 -217 -20 -389 62 -610 36
-98 139 -298 178 -347 6 -7 39 -55 75 -108 36 -52 72 -95 80 -95 48 0 160 106
241 230 56 85 238 436 222 428 -20 -10 -69 -32 -237 -107 l-179 -80 -24 27
c-76 85 -142 194 -198 327 -24 56 -83 234 -89 267 -2 15 -7 31 -9 35 -3 5 -8
44 -12 88 -6 78 -35 169 -47 150z"/>
<path d="M9627 7114 c-3 -5 -19 -50 -35 -99 -28 -86 -84 -238 -102 -280 -15
-33 -118 -316 -135 -370 -14 -44 -22 -54 -68 -78 l-52 -29 -110 57 c-61 32
-138 73 -172 91 -71 39 -88 42 -74 17 6 -10 36 -76 68 -148 98 -218 193 -363
283 -434 73 -58 88 -55 147 27 154 212 307 526 339 692 3 14 10 45 15 69 30
134 15 302 -35 398 -32 61 -62 98 -69 87z"/>
<path d="M426 6370 c-4 -19 -11 -57 -15 -85 -9 -51 -8 -296 2 -312 3 -4 8 -24
11 -43 61 -374 377 -814 674 -939 63 -26 72 -22 135 61 49 65 89 149 166 350
32 84 66 168 75 185 9 18 16 46 16 63 0 28 -2 30 -21 20 -24 -13 -84 -73 -157
-157 -114 -133 -222 -133 -349 -1 -98 100 -139 169 -328 545 -74 147 -150 286
-169 308 l-34 40 -6 -35z"/>
<path d="M9947 6353 c-8 -15 -38 -82 -67 -148 -158 -361 -236 -492 -369 -625
-61 -60 -105 -95 -152 -118 -112 -54 -110 -54 -222 40 -54 46 -110 101 -124
123 -26 39 -51 64 -65 65 -14 0 1 -147 21 -205 44 -126 143 -312 253 -473 34
-50 42 -50 158 -4 218 85 375 290 518 672 84 225 108 333 111 495 3 146 -30
241 -62 178z"/>
<path d="M335 5505 c3 -91 11 -168 21 -220 3 -11 7 -36 10 -55 15 -97 63 -247
114 -355 29 -61 105 -191 120 -205 3 -3 17 -21 32 -41 15 -20 55 -65 90 -100
148 -150 328 -254 548 -315 122 -34 120 -35 157 44 89 188 138 403 148 657 l5
100 -39 -44 c-22 -25 -67 -91 -100 -146 -76 -126 -140 -196 -173 -189 -13 2
-35 6 -51 9 -77 14 -182 65 -257 124 -110 85 -189 183 -320 393 -142 229 -216
340 -264 393 l-44 50 3 -100z"/>
<path d="M10060 5579 c-30 -56 -288 -439 -310 -459 -3 -3 -21 -25 -40 -50
-126 -165 -308 -320 -473 -406 -95 -49 -88 -49 -153 6 -70 60 -159 198 -185
287 -14 48 -35 62 -45 31 -8 -25 -8 -185 0 -243 11 -82 19 -130 22 -145 42
-185 88 -307 141 -378 31 -41 37 -40 216 31 111 43 292 136 307 157 3 4 12 11
21 16 50 28 172 141 230 214 91 115 182 293 229 450 12 41 26 84 31 95 16 36
50 179 56 237 6 67 -3 138 -21 163 -13 18 -14 17 -26 -6z"/>
<path d="M501 4353 c57 -305 315 -605 659 -767 75 -35 200 -82 243 -90 12 -3
54 -12 92 -21 39 -8 120 -18 181 -21 l111 -7 21 59 c24 66 29 90 40 186 15
124 4 335 -29 583 -10 77 -27 114 -46 102 -6 -4 -47 -119 -93 -257 -93 -279
-81 -262 -190 -264 -175 -4 -375 86 -626 281 -16 12 -78 61 -139 108 -90 70
-216 155 -229 155 -2 0 1 -21 5 -47z"/>
<path d="M9828 4326 c-42 -40 -105 -92 -140 -115 -35 -22 -67 -44 -73 -49 -24
-18 -223 -104 -360 -156 -169 -64 -244 -95 -327 -137 -87 -43 -91 -40 -126 71
-17 52 -53 168 -82 257 -28 89 -56 165 -62 169 -16 10 -36 -22 -57 -91 -28
-90 -35 -154 -36 -320 0 -191 10 -302 43 -445 7 -31 13 -37 62 -54 141 -48
345 -10 545 102 307 172 651 568 709 815 10 44 -12 33 -96 -47z"/>
<path d="M2155 3658 c-12 -39 -109 -398 -113 -422 -8 -47 -52 -59 -232 -62
-159 -3 -223 5 -382 46 -101 26 -223 67 -270 91 -30 15 -38 16 -47 5 -13 -16
4 -39 104 -144 170 -180 418 -307 680 -349 57 -9 381 -11 390 -2 16 17 32 172
29 301 -3 214 -49 416 -116 515 -24 35 -36 41 -43 21z"/>
<path d="M8212 3603 c-12 -38 -28 -95 -36 -128 -14 -59 -18 -79 -31 -180 -4
-27 -9 -61 -11 -75 -9 -55 -15 -378 -7 -383 34 -21 325 -31 423 -14 256 44
503 166 643 316 48 52 106 146 96 156 -2 1 -62 -15 -134 -36 -292 -89 -411
-113 -544 -110 -93 2 -162 24 -207 67 -39 37 -82 161 -104 304 -6 41 -14 88
-16 104 -6 39 -12 46 -33 46 -14 0 -23 -17 -39 -67z"/>
<path d="M2569 3169 c-1 -2 -3 -51 -4 -109 -9 -268 -14 -393 -18 -397 -19 -19
-414 -24 -690 -9 l-148 8 20 -39 c66 -129 242 -229 496 -283 82 -17 116 -22
240 -35 104 -11 363 -4 416 11 23 6 27 29 23 115 -8 184 -98 438 -216 612 -23
34 -47 67 -53 72 -49 45 -65 58 -66 54z"/>
<path d="M7796 3137 c-18 -33 -60 -108 -113 -207 -80 -149 -157 -372 -161
-470 -1 -8 -3 -41 -6 -72 -5 -65 -13 -59 104 -83 75 -16 249 -21 345 -10 42 5
103 17 209 40 160 36 387 155 475 250 50 54 52 68 9 61 -32 -5 -64 -8 -213
-21 -38 -4 -81 -8 -95 -11 -38 -6 -271 -5 -305 1 -72 13 -137 40 -155 63 -32
41 -41 93 -40 254 1 84 -1 163 -4 175 -4 20 -24 63 -29 63 -1 0 -10 -15 -21
-33z"/>
<path d="M7217 2475 c-76 -41 -231 -100 -291 -111 -16 -3 -32 -7 -36 -9 -4 -2
-40 -11 -81 -20 -41 -9 -83 -18 -94 -20 -11 -3 -67 -14 -125 -25 -137 -27
-342 -76 -405 -97 -109 -35 -258 -110 -410 -205 -60 -39 -129 -82 -152 -96
-67 -42 -51 -81 60 -147 70 -41 163 -71 370 -120 l198 -46 144 86 c132 80 166
108 149 124 -3 3 -119 6 -257 7 -248 1 -283 4 -362 27 -22 6 -46 11 -54 12
-15 0 -22 37 -11 54 15 26 381 159 480 176 25 4 54 10 65 13 11 3 191 6 400 8
209 1 391 5 405 8 14 3 48 11 75 17 46 11 140 51 157 68 4 3 -28 29 -72 56
-99 62 -105 80 -66 194 14 42 26 78 26 81 0 16 -44 3 -113 -35z"/>
<path d="M3104 2501 c3 -5 8 -26 12 -47 3 -22 12 -67 19 -102 l13 -63 -32 -16
c-17 -10 -49 -25 -70 -35 -39 -19 -65 -44 -66 -64 0 -6 30 -21 68 -33 135 -42
193 -46 617 -41 148 2 285 -4 335 -14 8 -1 33 -6 55 -10 80 -16 251 -66 310
-91 17 -8 68 -30 114 -49 118 -50 125 -64 54 -99 -50 -25 -113 -42 -198 -54
-69 -9 -298 -9 -367 0 -38 5 -58 4 -58 -2 0 -17 76 -84 137 -121 32 -19 67
-43 77 -52 19 -18 26 -18 116 -3 96 16 296 72 390 110 118 47 210 92 210 102
0 17 -57 101 -89 131 -51 48 -131 99 -210 132 -67 29 -258 86 -316 95 -73 11
-427 86 -498 105 -64 17 -279 97 -442 165 -48 20 -100 40 -105 41 -3 0 -18 6
-33 12 -34 14 -50 15 -43 3z"/>
</g>
</svg>
