<svg width="46" height="46" viewBox="0 0 46 46" fill="none" xmlns="http://www.w3.org/2000/svg">
<g clip-path="url(#clip0_143_779)">
<path d="M7.06304 35.1934V34.7544C7.06291 34.1772 7.1765 33.6056 7.39732 33.0723C7.61814 32.539 7.94187 32.0545 8.35001 31.6464C8.75815 31.2382 9.2427 30.9145 9.77599 30.6937C10.3093 30.4728 10.8808 30.3592 11.458 30.3594H6.18404C5.01868 30.3594 3.90105 30.8223 3.07701 31.6464C2.25298 32.4704 1.79004 33.588 1.79004 34.7534V35.1924C1.79004 37.5234 2.71602 39.7589 4.36428 41.4071C6.01253 43.0554 8.24805 43.9814 10.579 43.9814H15.852C13.5212 43.9814 11.2859 43.0555 9.63763 41.4075C7.9894 39.7595 7.0633 37.5242 7.06304 35.1934Z" fill="#D0E9FF"/>
<path d="M39.7572 25.1742C39.291 25.1742 38.8438 24.989 38.5141 24.6593C38.1844 24.3296 37.9992 23.8825 37.9992 23.4162V11.2872C37.9971 9.42312 37.2557 7.63599 35.9376 6.31788C34.6194 4.99977 32.8323 4.25833 30.9682 4.25621H14.0942C12.2301 4.25833 10.443 4.99977 9.1249 6.31788C7.80679 7.63599 7.06534 9.42312 7.06323 11.2872V23.4162C7.05228 23.8751 6.86231 24.3115 6.53391 24.6321C6.20551 24.9528 5.76472 25.1323 5.30573 25.1323C4.84674 25.1323 4.40595 24.9528 4.07755 24.6321C3.74914 24.3115 3.55917 23.8751 3.54823 23.4162V11.2872C3.5514 8.49121 4.66352 5.81064 6.64059 3.83357C8.61766 1.8565 11.2982 0.744387 14.0942 0.741211L30.9682 0.741211C33.7644 0.744122 36.4452 1.85612 38.4225 3.83322C40.3998 5.81032 41.5121 8.49104 41.5152 11.2872V23.4162C41.5152 23.8825 41.33 24.3296 41.0003 24.6593C40.6706 24.989 40.2235 25.1742 39.7572 25.1742ZM26.4862 12.8742C26.9213 12.8742 27.3467 12.7452 27.7085 12.5034C28.0703 12.2617 28.3522 11.9181 28.5188 11.5161C28.6853 11.1141 28.7288 10.6718 28.644 10.245C28.5591 9.81825 28.3495 9.42625 28.0419 9.11858C27.7342 8.8109 27.3422 8.60137 26.9154 8.51648C26.4887 8.4316 26.0463 8.47516 25.6443 8.64168C25.2423 8.80819 24.8987 9.09017 24.657 9.45196C24.4153 9.81374 24.2862 10.2391 24.2862 10.6742C24.2875 11.2568 24.5199 11.8151 24.9324 12.2266C25.3448 12.6381 25.9036 12.8692 26.4862 12.8692V12.8742ZM45.0322 35.1932V34.7542C45.0304 33.1232 44.3816 31.5595 43.2283 30.4061C42.075 29.2528 40.5113 28.6041 38.8802 28.6022H33.1802C31.8732 28.6009 30.5916 28.9635 29.4789 29.6493C28.3663 30.3351 27.4664 31.317 26.8802 32.4852C26.4785 33.2937 25.8592 33.9741 25.0918 34.4497C24.3244 34.9253 23.4395 35.1773 22.5367 35.1773C21.6339 35.1773 20.749 34.9253 19.9817 34.4497C19.2143 33.9741 18.5949 33.2937 18.1932 32.4852C17.607 31.317 16.7072 30.3351 15.5945 29.6493C14.4819 28.9635 13.2003 28.6009 11.8932 28.6022H6.19323C4.5608 28.6017 2.99493 29.2492 1.83969 30.4026C0.68445 31.556 0.0343469 33.1208 0.0322266 34.7532L0.0322266 35.1922C0.0346086 37.9887 1.14637 40.6701 3.12353 42.6478C5.10068 44.6255 7.78171 45.738 10.5782 45.7412H34.4842C37.2809 45.7386 39.9623 44.6264 41.9399 42.6488C43.9174 40.6713 45.0296 37.9899 45.0322 35.1932ZM11.8862 32.1172C12.5368 32.1125 13.1758 32.2892 13.7315 32.6274C14.2872 32.9657 14.7376 33.4522 15.0322 34.0322C15.7197 35.4353 16.787 36.6174 18.1128 37.4441C19.4386 38.2709 20.9698 38.7092 22.5322 38.7092C24.0947 38.7092 25.6258 38.2709 26.9516 37.4441C28.2774 36.6174 29.3447 35.4353 30.0322 34.0322C30.3267 33.4523 30.777 32.966 31.3325 32.6277C31.8881 32.2894 32.5268 32.1127 33.1772 32.1172H38.8772C39.5764 32.118 40.2466 32.3961 40.741 32.8904C41.2354 33.3848 41.5134 34.0551 41.5142 34.7542V35.1932C41.5121 37.0573 40.7707 38.8444 39.4526 40.1625C38.1344 41.4807 36.3473 42.2221 34.4832 42.2242H10.5782C8.71414 42.2221 6.92701 41.4807 5.6089 40.1625C4.29079 38.8444 3.54934 37.0573 3.54723 35.1932V34.7542C3.54802 34.0551 3.8261 33.3848 4.32046 32.8904C4.81482 32.3961 5.48509 32.118 6.18423 32.1172H11.8862Z" fill="#2699FB"/>
<path d="M12.5124 22.4454C12.171 22.4452 11.8371 22.3456 11.5514 22.1588C11.2657 21.972 11.0405 21.7061 10.9034 21.3935C10.7663 21.0809 10.7232 20.7352 10.7793 20.3985C10.8354 20.0617 10.9883 19.7487 11.2194 19.4974C11.2194 19.4974 14.7194 15.6974 14.7564 15.6634C15.8346 14.6897 17.2233 14.1301 18.6754 14.0841C20.1274 14.0382 21.5487 14.5088 22.6864 15.4124L22.7094 15.4304L25.3824 17.6164C26.6454 18.6104 27.6374 18.5464 28.6934 17.4024L31.2214 14.4384C31.3697 14.2582 31.5525 14.1094 31.759 14.0006C31.9655 13.8917 32.1916 13.8251 32.4241 13.8046C32.6566 13.7841 32.8909 13.8101 33.1132 13.8811C33.3356 13.9521 33.5416 14.0667 33.7192 14.2181C33.8968 14.3696 34.0425 14.5549 34.1477 14.7632C34.2529 14.9716 34.3156 15.1988 34.3321 15.4316C34.3486 15.6645 34.3186 15.8982 34.2438 16.1193C34.1689 16.3404 34.0508 16.5444 33.8964 16.7194C33.8964 16.7194 31.3214 19.7374 31.3084 19.7524C30.8019 20.3628 30.1752 20.8624 29.4672 21.2201C28.7593 21.5778 27.9852 21.7859 27.1934 21.8314C25.7283 21.8328 24.3105 21.3132 23.1934 20.3654L23.1714 20.3474L20.4984 18.1614C20.0205 17.7855 19.4272 17.5867 18.8194 17.5989C18.2115 17.6112 17.6267 17.8336 17.1644 18.2284L13.8094 21.8764C13.6446 22.0562 13.4442 22.1997 13.2209 22.2977C12.9976 22.3957 12.7562 22.446 12.5124 22.4454Z" fill="#FFB013"/>
</g>
<defs>
<clipPath id="clip0_143_779">
<rect width="44.998" height="44.998" fill="white" transform="translate(0.0322266 0.741211)"/>
</clipPath>
</defs>
</svg>
