<svg width="46" height="46" viewBox="0 0 46 46" fill="none" xmlns="http://www.w3.org/2000/svg">
<g clip-path="url(#clip0_143_771)">
<path d="M7.22173 36.9509V20.0759C7.22173 18.2119 7.96194 16.4241 9.27965 15.1057C10.5974 13.7872 12.3847 13.046 14.2487 13.0449H8.97973C7.11499 13.0449 5.32663 13.7857 4.00806 15.1042C2.68949 16.4228 1.94873 18.2112 1.94873 20.0759V36.9509C1.94873 38.8157 2.68949 40.604 4.00806 41.9226C5.32663 43.2412 7.11499 43.9819 8.97973 43.9819H14.2487C12.3847 43.9809 10.5974 43.2396 9.27965 41.9212C7.96194 40.6027 7.22173 38.815 7.22173 36.9509Z" fill="#D0E9FF"/>
<path d="M29.722 7.77123C29.2557 7.77123 28.8086 7.58602 28.4789 7.25633C28.1492 6.92664 27.964 6.47948 27.964 6.01323C27.9632 5.54663 27.7771 5.09943 27.4467 4.76996C27.1163 4.44049 26.6686 4.2557 26.202 4.25623H19.171C18.7049 4.25676 18.258 4.44215 17.9285 4.77173C17.5989 5.1013 17.4135 5.54815 17.413 6.01423C17.413 6.48048 17.2278 6.92764 16.8981 7.25733C16.5684 7.58702 16.1212 7.77223 15.655 7.77223C15.1887 7.77223 14.7416 7.58702 14.4119 7.25733C14.0822 6.92764 13.897 6.48048 13.897 6.01423C13.8983 4.6152 14.4549 3.2739 15.4446 2.285C16.4342 1.29611 17.7759 0.740499 19.175 0.740234L26.202 0.740234C27.6 0.741822 28.9403 1.29788 29.9288 2.28641C30.9173 3.27495 31.4734 4.61523 31.475 6.01323C31.475 6.47862 31.2904 6.92502 30.9618 7.25456C30.6332 7.58411 30.1874 7.76991 29.722 7.77123Z" fill="#FFB013"/>
<path d="M36.4019 45.7401H8.97992C6.64982 45.7372 4.416 44.8103 2.76837 43.1627C1.12074 41.515 0.193829 39.2812 0.190918 36.9511L0.190918 20.0761C0.193829 17.746 1.12074 15.5122 2.76837 13.8646C4.416 12.2169 6.64982 11.29 8.97992 11.2871H36.4019C38.732 11.29 40.9658 12.2169 42.6135 13.8646C44.2611 15.5122 45.188 17.746 45.1909 20.0761V36.9511C45.188 39.2812 44.2611 41.515 42.6135 43.1627C40.9658 44.8103 38.732 45.7372 36.4019 45.7401ZM8.97992 14.8031C7.58192 14.8047 6.24163 15.3608 5.2531 16.3493C4.26456 17.3378 3.70851 18.6781 3.70692 20.0761V36.9511C3.70851 38.3491 4.26456 39.6894 5.2531 40.6779C6.24163 41.6665 7.58192 42.2225 8.97992 42.2241H36.4019C37.7999 42.2225 39.1402 41.6665 40.1287 40.6779C41.1173 39.6894 41.6733 38.3491 41.6749 36.9511V20.0761C41.6733 18.6781 41.1173 17.3378 40.1287 16.3493C39.1402 15.3608 37.7999 14.8047 36.4019 14.8031H8.97992Z" fill="#2699FB"/>
<path d="M36.4017 17.9668C35.9354 17.9668 35.4883 18.152 35.1586 18.4817C34.8289 18.8114 34.6437 19.2585 34.6437 19.7248C34.6421 21.1228 34.086 22.4631 33.0975 23.4516C32.109 24.4401 30.7687 24.9962 29.3707 24.9978H16.0107C14.6127 24.9962 13.2724 24.4401 12.2839 23.4516C11.2953 22.4631 10.7393 21.1228 10.7377 19.7248C10.7377 19.2585 10.5525 18.8114 10.2228 18.4817C9.89308 18.152 9.44593 17.9668 8.97968 17.9668C8.51343 17.9668 8.06628 18.152 7.73659 18.4817C7.4069 18.8114 7.22168 19.2585 7.22168 19.7248C7.22459 22.0549 8.15151 24.2887 9.79913 25.9363C11.4468 27.584 13.6806 28.5109 16.0107 28.5138H20.9327V30.2668C20.9327 30.7331 21.1179 31.1802 21.4476 31.5099C21.7773 31.8396 22.2244 32.0248 22.6907 32.0248C23.1569 32.0248 23.6041 31.8396 23.9338 31.5099C24.2635 31.1802 24.4487 30.7331 24.4487 30.2668V28.5088H29.3707C31.7008 28.5059 33.9346 27.579 35.5822 25.9314C37.2299 24.2837 38.1568 22.0499 38.1597 19.7198C38.1584 19.2544 37.9726 18.8085 37.643 18.4799C37.3135 18.1513 36.8671 17.9668 36.4017 17.9668Z" fill="#2699FB"/>
</g>
<defs>
<clipPath id="clip0_143_771">
<rect width="45" height="45" fill="white" transform="translate(0.190918 0.740234)"/>
</clipPath>
</defs>
</svg>
