<svg width="46" height="46" viewBox="0 0 46 46" fill="none" xmlns="http://www.w3.org/2000/svg">
<g clip-path="url(#clip0_143_791)">
<path d="M36.7332 41.3661L35.4822 42.6171L29.3192 36.4561C27.788 34.9268 26.7441 32.9781 26.3192 30.8561L25.3192 25.8761L30.2992 26.8761C30.4672 26.9101 30.6332 26.9481 30.7992 26.9901L32.1152 34.1591C32.5401 36.2811 33.584 38.2298 35.1152 39.7591L36.7332 41.3661ZM7.22322 35.1931V11.2871C7.22322 8.95615 8.1492 6.72063 9.79746 5.07237C11.4457 3.42412 13.6812 2.49813 16.0122 2.49813L34.6402 2.43013V2.41113L10.7342 2.49913C8.4041 2.50019 6.16976 3.42651 4.5224 5.07443C2.87503 6.72236 1.94948 8.95701 1.94922 11.2871V35.1931C1.94922 37.5241 2.8752 39.7596 4.52346 41.4079C6.17171 43.0562 8.40723 43.9821 10.7382 43.9821L15.3132 43.9541C13.1102 43.7784 11.0542 42.7792 9.55474 41.1556C8.05531 39.532 7.22251 37.4032 7.22222 35.1931H7.22322Z" fill="#D0E9FF"/>
<path d="M27.4374 45.7402H10.7374C7.94132 45.7368 5.26075 44.6245 3.2837 42.6472C1.30666 40.67 0.194582 37.9893 0.191406 35.1932L0.191406 11.2872C0.194582 8.49097 1.3068 5.81015 3.28406 3.83289C5.26132 1.85563 7.94214 0.74341 10.7384 0.740234L34.6444 0.740234C37.4407 0.74341 40.1215 1.85563 42.0988 3.83289C44.076 5.81015 45.1882 8.49097 45.1914 11.2872V28.1182C45.1914 28.5845 45.0062 29.0316 44.6765 29.3613C44.3468 29.691 43.8997 29.8762 43.4334 29.8762C42.9672 29.8762 42.52 29.691 42.1903 29.3613C41.8606 29.0316 41.6754 28.5845 41.6754 28.1182V11.2872C41.6733 9.42315 40.9318 7.63601 39.6137 6.31791C38.2956 4.9998 36.5085 4.25835 34.6444 4.25623H10.7384C8.87432 4.25835 7.08719 4.9998 5.76908 6.31791C4.45097 7.63601 3.70952 9.42315 3.70741 11.2872V35.1932C3.70952 37.0573 4.45097 38.8445 5.76908 40.1626C7.08719 41.4807 8.87432 42.2221 10.7384 42.2242H27.4384C27.9047 42.2242 28.3518 42.4095 28.6815 42.7391C29.0112 43.0688 29.1964 43.516 29.1964 43.9822C29.1964 44.4485 29.0112 44.8956 28.6815 45.2253C28.3518 45.555 27.9047 45.7402 27.4384 45.7402H27.4374ZM43.3124 43.8612C44.514 42.6571 45.1889 41.0254 45.1889 39.3242C45.1889 37.6231 44.514 35.9914 43.3124 34.7872L37.1504 28.6252C35.3762 26.8477 33.1138 25.6375 30.6504 25.1482L25.6704 24.1482C25.3867 24.0916 25.0934 24.1059 24.8166 24.1898C24.5398 24.2737 24.2879 24.4246 24.0833 24.6292C23.8788 24.8337 23.7279 25.0856 23.644 25.3624C23.5601 25.6393 23.5458 25.9325 23.6024 26.2162L24.6024 31.1962C25.0917 33.6596 26.3019 35.922 28.0794 37.6962L34.2414 43.8582C34.8372 44.4541 35.5445 44.9267 36.323 45.2492C37.1014 45.5717 37.9358 45.7376 38.7784 45.7376C39.621 45.7376 40.4554 45.5717 41.2338 45.2492C42.0123 44.9267 42.7196 44.4541 43.3154 43.8582L43.3124 43.8612ZM29.9634 28.5962C31.7446 28.9505 33.3805 29.8258 34.6634 31.1112L40.8254 37.2732C41.1055 37.54 41.3294 37.8601 41.4839 38.2146C41.6384 38.5692 41.7205 38.9511 41.7252 39.3379C41.7299 39.7246 41.6572 40.1084 41.5114 40.4667C41.3655 40.8249 41.1495 41.1503 40.876 41.4238C40.6025 41.6973 40.2771 41.9134 39.9188 42.0592C39.5606 42.205 39.1768 42.2777 38.79 42.273C38.4033 42.2683 38.0214 42.1863 37.6668 42.0317C37.3122 41.8772 36.9922 41.6533 36.7254 41.3732L30.5634 35.2112C29.2781 33.9282 28.4027 32.2924 28.0484 30.5112L27.5694 28.1112L29.9634 28.5962Z" fill="#2699FB"/>
<path d="M34.6445 13.5724H18.5605C18.0942 13.5724 17.6471 13.3872 17.3174 13.0575C16.9877 12.7278 16.8025 12.2807 16.8025 11.8144C16.8025 11.3482 16.9877 10.901 17.3174 10.5713C17.6471 10.2416 18.0942 10.0564 18.5605 10.0564H34.6445C35.1107 10.0564 35.5579 10.2416 35.8876 10.5713C36.2173 10.901 36.4025 11.3482 36.4025 11.8144C36.4025 12.2807 36.2173 12.7278 35.8876 13.0575C35.5579 13.3872 35.1107 13.5724 34.6445 13.5724ZM36.4025 18.8454C36.4025 18.3792 36.2173 17.932 35.8876 17.6023C35.5579 17.2726 35.1107 17.0874 34.6445 17.0874H10.7385C10.2722 17.0874 9.82507 17.2726 9.49538 17.6023C9.16569 17.932 8.98047 18.3792 8.98047 18.8454C8.98047 19.3117 9.16569 19.7588 9.49538 20.0885C9.82507 20.4182 10.2722 20.6034 10.7385 20.6034H34.6445C34.8757 20.6034 35.1046 20.5578 35.3182 20.4692C35.5317 20.3806 35.7257 20.2508 35.889 20.0871C36.0523 19.9234 36.1817 19.7291 36.2698 19.5154C36.3579 19.3016 36.403 19.0726 36.4025 18.8414V18.8454ZM18.8245 25.8764C18.8245 25.4102 18.6393 24.963 18.3096 24.6333C17.9799 24.3036 17.5327 24.1184 17.0665 24.1184H10.7385C10.2722 24.1184 9.82507 24.3036 9.49538 24.6333C9.16569 24.963 8.98047 25.4102 8.98047 25.8764C8.98047 26.3427 9.16569 26.7898 9.49538 27.1195C9.82507 27.4492 10.2722 27.6344 10.7385 27.6344H17.0665C17.5325 27.6344 17.9796 27.4493 18.3092 27.1199C18.6389 26.7904 18.8242 26.3435 18.8245 25.8774V25.8764ZM8.98047 11.6414C8.98047 12.0765 9.1095 12.5019 9.35123 12.8637C9.59297 13.2255 9.93656 13.5074 10.3386 13.6739C10.7406 13.8405 11.1829 13.884 11.6097 13.7991C12.0364 13.7142 12.4284 13.5047 12.7361 13.197C13.0438 12.8894 13.2533 12.4974 13.3382 12.0706C13.4231 11.6438 13.3795 11.2015 13.213 10.7995C13.0465 10.3975 12.7645 10.0539 12.4027 9.81217C12.0409 9.57043 11.6156 9.44141 11.1805 9.44141C10.597 9.44141 10.0374 9.67319 9.62483 10.0858C9.21225 10.4983 8.98047 11.0579 8.98047 11.6414Z" fill="#FFB013"/>
</g>
<defs>
<clipPath id="clip0_143_791">
<rect width="45" height="45" fill="white" transform="translate(0.191406 0.740234)"/>
</clipPath>
</defs>
</svg>
