<svg width="167" height="49" viewBox="0 0 167 49" fill="none" xmlns="http://www.w3.org/2000/svg">
<path d="M160.229 48.9258H6.38236C2.99928 48.9258 0.228516 46.2243 0.228516 42.9258V6.92578C0.228516 3.62728 2.99928 0.925779 6.38236 0.925779H160.229C163.612 0.925779 166.382 3.62728 166.382 6.92578V42.9258C166.382 46.2243 163.612 48.9258 160.229 48.9258Z" fill="black"/>
<path d="M160.229 1.88728C163.078 1.88728 165.396 4.14778 165.396 6.92578V42.9258C165.396 45.7038 163.078 47.9643 160.229 47.9643H6.38236C3.53313 47.9643 1.21467 45.7038 1.21467 42.9258V6.92578C1.21467 4.14778 3.53313 1.88728 6.38236 1.88728H160.229ZM160.229 0.925779H6.38236C2.99928 0.925779 0.228516 3.62728 0.228516 6.92578V42.9258C0.228516 46.2243 2.99928 48.9258 6.38236 48.9258H160.229C163.612 48.9258 166.382 46.2243 166.382 42.9258V6.92578C166.382 3.62728 163.612 0.925779 160.229 0.925779Z" fill="#A6A6A6"/>
<path d="M13.0717 9.9723C12.7102 10.3413 12.501 10.9158 12.501 11.6598V38.1978C12.501 38.9418 12.7102 39.5163 13.0717 39.8853L13.161 39.9663L28.4133 25.1013V24.7503L13.161 9.88531L13.0717 9.9723Z" fill="url(#paint0_linear_143_491)"/>
<path d="M33.4915 30.0586L28.4131 25.1011V24.7501L33.4977 19.7926L33.6115 19.8571L39.6331 23.1976C41.3515 24.1456 41.3515 25.7056 39.6331 26.6596L33.6115 29.9941L33.4915 30.0586Z" fill="url(#paint1_linear_143_491)"/>
<path d="M33.6118 29.9943L28.4133 24.9258L13.0718 39.8852C13.6425 40.4702 14.5733 40.5408 15.6318 39.9558L33.6118 29.9943Z" fill="url(#paint2_linear_143_491)"/>
<path d="M33.6118 19.8573L15.6318 9.89578C14.5733 9.31678 13.6425 9.38728 13.0718 9.97228L28.4133 24.9258L33.6118 19.8573Z" fill="url(#paint3_linear_143_491)"/>
<path d="M58.5886 13.2186C58.5886 14.2206 58.2809 15.0231 57.6748 15.6216C56.9779 16.3311 56.0702 16.6881 54.9579 16.6881C53.8948 16.6881 52.9871 16.3251 52.2425 15.6096C51.4963 14.8836 51.124 13.9926 51.124 12.9261C51.124 11.8596 51.4963 10.9686 52.2425 10.2486C52.9871 9.52706 53.8948 9.16406 54.9579 9.16406C55.4871 9.16406 55.9917 9.27056 56.4732 9.46856C56.9532 9.66806 57.344 9.93806 57.6271 10.2711L56.984 10.9041C56.4902 10.3356 55.8179 10.0551 54.9579 10.0551C54.1825 10.0551 53.5102 10.3191 52.9394 10.8516C52.3748 11.3856 52.0917 12.0771 52.0917 12.9261C52.0917 13.7751 52.3748 14.4726 52.9394 15.0066C53.5102 15.5331 54.1825 15.8031 54.9579 15.8031C55.7809 15.8031 56.4733 15.5331 57.0194 15.0006C57.3794 14.6481 57.584 14.1621 57.6379 13.5411H54.9579V12.6741H58.5332C58.5763 12.8616 58.5886 13.0431 58.5886 13.2186Z" fill="white" stroke="white" stroke-width="0.16" stroke-miterlimit="10"/>
<path d="M64.2609 10.2126H60.9024V12.4926H63.9301V13.3596H60.9024V15.6396H64.2609V16.5231H59.9517V9.3291H64.2609V10.2126Z" fill="white" stroke="white" stroke-width="0.16" stroke-miterlimit="10"/>
<path d="M68.2642 16.5231H67.3134V10.2126H65.2534V9.3291H70.3257V10.2126H68.2642V16.5231Z" fill="white" stroke="white" stroke-width="0.16" stroke-miterlimit="10"/>
<path d="M73.9966 16.5231V9.3291H74.9458V16.5231H73.9966Z" fill="white" stroke="white" stroke-width="0.16" stroke-miterlimit="10"/>
<path d="M79.1533 16.5231H78.2103V10.2126H76.1426V9.3291H81.221V10.2126H79.1533V16.5231Z" fill="white" stroke="white" stroke-width="0.16" stroke-miterlimit="10"/>
<path d="M90.8239 15.5976C90.0962 16.3251 89.1947 16.6881 88.1193 16.6881C87.0377 16.6881 86.1362 16.3251 85.4085 15.5976C84.6823 14.8716 84.3208 13.9806 84.3208 12.9261C84.3208 11.8716 84.6823 10.9806 85.4085 10.2546C86.1362 9.52706 87.0377 9.16406 88.1193 9.16406C89.1885 9.16406 90.0901 9.52706 90.8177 10.2606C91.5501 10.9926 91.9116 11.8776 91.9116 12.9261C91.9116 13.9806 91.5501 14.8716 90.8239 15.5976ZM86.1116 14.9946C86.6593 15.5331 87.3254 15.8031 88.1193 15.8031C88.907 15.8031 89.5793 15.5331 90.1208 14.9946C90.667 14.4561 90.9439 13.7646 90.9439 12.9261C90.9439 12.0876 90.667 11.3961 90.1208 10.8576C89.5793 10.3191 88.907 10.0491 88.1193 10.0491C87.3254 10.0491 86.6593 10.3191 86.1116 10.8576C85.5654 11.3961 85.2885 12.0876 85.2885 12.9261C85.2885 13.7646 85.5654 14.4561 86.1116 14.9946Z" fill="white" stroke="white" stroke-width="0.16" stroke-miterlimit="10"/>
<path d="M93.2456 16.5231V9.3291H94.3995L97.9872 14.9241H98.0287L97.9872 13.5411V9.3291H98.9364V16.5231H97.9456L94.1887 10.6521H94.1471L94.1887 12.0411V16.5231H93.2456Z" fill="white" stroke="white" stroke-width="0.16" stroke-miterlimit="10"/>
<path d="M84.0869 27.0289C81.1962 27.0289 78.8346 29.1739 78.8346 32.1334C78.8346 35.0688 81.1962 37.2363 84.0869 37.2363C86.9839 37.2363 89.3454 35.0688 89.3454 32.1334C89.3454 29.1739 86.9839 27.0289 84.0869 27.0289ZM84.0869 35.2263C82.5008 35.2263 81.1362 33.9499 81.1362 32.1334C81.1362 30.2929 82.5008 29.0389 84.0869 29.0389C85.6731 29.0389 87.0439 30.2929 87.0439 32.1334C87.0439 33.9499 85.6731 35.2263 84.0869 35.2263ZM72.6269 27.0289C69.73 27.0289 67.3746 29.1739 67.3746 32.1334C67.3746 35.0688 69.73 37.2363 72.6269 37.2363C75.5223 37.2363 77.8792 35.0688 77.8792 32.1334C77.8792 29.1739 75.5223 27.0289 72.6269 27.0289ZM72.6269 35.2263C71.0392 35.2263 69.67 33.9499 69.67 32.1334C69.67 30.2929 71.0392 29.0389 72.6269 29.0389C74.2131 29.0389 75.5777 30.2929 75.5777 32.1334C75.5777 33.9499 74.2131 35.2263 72.6269 35.2263ZM58.99 28.5934V30.7624H64.3023C64.1469 31.9744 63.7316 32.8654 63.0946 33.4864C62.3192 34.2364 61.1116 35.0688 58.99 35.0688C55.7208 35.0688 53.1608 32.4964 53.1608 29.3089C53.1608 26.1214 55.7208 23.5489 58.99 23.5489C60.7577 23.5489 62.0439 24.2224 62.9931 25.0954L64.5608 23.5669C63.2331 22.3309 61.4669 21.3814 58.99 21.3814C54.5069 21.3814 50.7393 24.9379 50.7393 29.3089C50.7393 33.6799 54.5069 37.2363 58.99 37.2363C61.4131 37.2363 63.2331 36.4623 64.6639 35.0103C66.13 33.5808 66.5869 31.5708 66.5869 29.9478C66.5869 29.4439 66.5439 28.9804 66.4669 28.5934H58.99ZM114.753 30.2749C114.321 29.1334 112.987 27.0289 110.27 27.0289C107.578 27.0289 105.336 29.0974 105.336 32.1334C105.336 34.9923 107.555 37.2363 110.528 37.2363C112.933 37.2363 114.321 35.8068 114.892 34.9743L113.107 33.8149C112.512 34.6639 111.701 35.2263 110.528 35.2263C109.364 35.2263 108.528 34.7058 107.993 33.6799L114.995 30.8553L114.753 30.2749ZM107.615 31.9743C107.555 30.0063 109.182 28.9984 110.348 28.9984C111.262 28.9984 112.038 29.4439 112.296 30.0814L107.615 31.9743ZM101.924 36.9258H104.225V21.9259H101.924V36.9258ZM98.1546 28.1659H98.0777C97.5608 27.5689 96.5746 27.0289 95.3254 27.0289C92.7039 27.0289 90.3069 29.2729 90.3069 32.1499C90.3069 35.0103 92.7039 37.2363 95.3254 37.2363C96.5746 37.2363 97.5608 36.6918 98.0777 36.0768H98.1546V36.8089C98.1546 38.7603 97.0854 39.8088 95.3608 39.8088C93.9546 39.8088 93.0823 38.8188 92.7223 37.9863L90.7208 38.8008C91.2977 40.1538 92.8254 41.8188 95.3608 41.8188C98.0592 41.8188 100.336 40.2708 100.336 36.5043V27.3393H98.1546V28.1659ZM95.5223 35.2263C93.9362 35.2263 92.6085 33.9318 92.6085 32.1499C92.6085 30.3514 93.9362 29.0389 95.5223 29.0389C97.0854 29.0389 98.3177 30.3514 98.3177 32.1499C98.3177 33.9318 97.0854 35.2263 95.5223 35.2263ZM125.528 21.9259H120.024V36.9258H122.319V31.2424H125.528C128.078 31.2424 130.578 29.4439 130.578 26.5834C130.578 23.7244 128.072 21.9259 125.528 21.9259ZM125.588 29.1559H122.319V24.0124H125.588C127.302 24.0124 128.281 25.3999 128.281 26.5834C128.281 27.7444 127.302 29.1559 125.588 29.1559ZM139.778 27.0004C138.119 27.0004 136.395 27.7144 135.685 29.2968L137.722 30.1294C138.161 29.2968 138.967 29.0268 139.819 29.0268C141.01 29.0268 142.218 29.7244 142.236 30.9559V31.1134C141.821 30.8794 140.932 30.5329 139.838 30.5329C137.644 30.5329 135.408 31.7104 135.408 33.9079C135.408 35.9179 137.205 37.2123 139.225 37.2123C140.77 37.2123 141.622 36.5328 142.158 35.7423H142.236V36.9018H144.453V31.1479C144.453 28.4884 142.416 27.0004 139.778 27.0004ZM139.501 35.2204C138.75 35.2204 137.704 34.8574 137.704 33.9499C137.704 32.7889 139.008 32.3433 140.138 32.3433C141.148 32.3433 141.622 32.5609 142.236 32.8474C142.056 34.2363 140.83 35.2204 139.501 35.2204ZM152.53 27.3289L149.892 33.8314H149.813L147.085 27.3289H144.61L148.708 36.4158L146.37 41.4723H148.768L155.084 27.3289H152.53ZM131.839 36.9258H134.141V21.9259H131.839V36.9258Z" fill="white"/>
<defs>
<linearGradient id="paint0_linear_143_491" x1="27.0591" y1="38.4742" x2="6.92663" y2="17.8255" gradientUnits="userSpaceOnUse">
<stop stop-color="#00A0FF"/>
<stop offset="0.0066" stop-color="#00A1FF"/>
<stop offset="0.2601" stop-color="#00BEFF"/>
<stop offset="0.5122" stop-color="#00D2FF"/>
<stop offset="0.7604" stop-color="#00DFFF"/>
<stop offset="1" stop-color="#00E3FF"/>
</linearGradient>
<linearGradient id="paint1_linear_143_491" x1="41.8708" y1="24.9239" x2="12.09" y2="24.9239" gradientUnits="userSpaceOnUse">
<stop stop-color="#FFE000"/>
<stop offset="0.4087" stop-color="#FFBD00"/>
<stop offset="0.7754" stop-color="#FFA500"/>
<stop offset="1" stop-color="#FF9C00"/>
</linearGradient>
<linearGradient id="paint2_linear_143_491" x1="30.785" y1="22.1704" x2="3.4838" y2="-5.8308" gradientUnits="userSpaceOnUse">
<stop stop-color="#FF3A44"/>
<stop offset="1" stop-color="#C31162"/>
</linearGradient>
<linearGradient id="paint3_linear_143_491" x1="9.20999" y1="48.7144" x2="21.4012" y2="36.2107" gradientUnits="userSpaceOnUse">
<stop stop-color="#32A071"/>
<stop offset="0.0685" stop-color="#2DA771"/>
<stop offset="0.4762" stop-color="#15CF74"/>
<stop offset="0.8009" stop-color="#06E775"/>
<stop offset="1" stop-color="#00F076"/>
</linearGradient>
</defs>
</svg>
